<svg version="1.2" xmlns="http://www.w3.org/2000/svg" viewBox="0 0 70 66" width="70" height="66">
	<style>
		tspan { white-space:pre } 
		.s0 { fill: #c1ee0f } 
		.s1 { fill: #000000 } 
	</style>
	<path fill-rule="evenodd" class="s0" d="m0 0h70v66h-70z"/>
	<path class="s1" d="m9.81 13q3.5 0 4.64 1 1.04 0.9 1.04 2.78 0 2.92-3.04 3.98l2.88 4.34 1.72 0.18q0 0.86-0.46 1.72h-2.9l-3.92-5.98h-0.64l-0.06 4.08 1.46 0.16q0 0.82-0.46 1.74h-4.94l-0.18-1.1q1.2-0.48 1.68-0.58-0.04-2.46-0.1-5.94-0.06-3.48-0.08-4.66l-1.66-0.5q0.02-0.46 0.18-1.22zm1.58 2.14q-0.62-0.14-1.66-0.14h-0.56q-0.04 2.76-0.04 4.14l0.98-0.02q1.18-0.02 1.86-0.48 0.7-0.48 0.7-1.84 0-1.36-1.28-1.66zm11.82 1.46q2.34 0 3.76 1.44 1.44 1.42 1.44 3.98 0 2.54-1.42 3.88-1.42 1.34-3.78 1.34-2.36 0-3.78-1.34-1.4-1.34-1.4-3.88 0-2.56 1.42-3.98 1.42-1.44 3.76-1.44zm0 1.6q-0.72 0-1.64 0.36-0.26 0.4-0.5 1.42-0.22 1-0.22 2.02 0 1.88 0.56 2.68 0.56 0.78 1.8 0.78 1.26 0 1.82-0.78 0.56-0.8 0.56-2.72 0-1.94-0.58-2.84-0.56-0.92-1.8-0.92zm7.91 9.04l-0.44-0.02q-0.12-0.22-0.32-0.82-0.2-0.6-0.22-0.9-0.1-1.98-0.22-6.86h-1.4l0.06-1.14q0.46-0.32 1.1-0.58l1.62-2.56q0.78 0.08 1.22 0.42l-0.02 1.9q1.26 0.04 2.34 0.24 0 0.8-0.5 1.72h-1.86q-0.08 4.2-0.1 6.3 0.8 0.08 2.18 0.46l-0.02 1.04q-0.34 0.22-1.52 0.52-1.16 0.28-1.9 0.28zm8.29 0q-1.7 0-2.64-0.7-0.92-0.7-0.92-2.36 0-1.58 1.1-2.58 0.64-0.58 1.78-0.68 1.14-0.1 3.14-0.1v-0.32q0-1.22-0.4-1.78-0.38-0.58-1.36-0.58-0.5 0-0.9 0.2l-0.48 1.74-1.48-0.04q-0.5-0.76-0.54-2.42 0.4-0.2 1.88-0.6 1.48-0.42 1.9-0.42 2.16 0 3.14 0.9 0.98 0.88 0.98 2.82 0 1.92-0.18 5.08 1.14 0.1 1.76 0.34 0.02 0.24 0.02 0.58l-0.02 0.44q-1.44 0.48-2.9 0.48-0.38 0-0.56-0.02-0.3-0.6-0.36-1.44h-0.1q-0.38 0.36-1.34 0.92-0.94 0.54-1.52 0.54zm-1-2.94q0 0.66 0.4 0.98 0.42 0.3 0.94 0.3 0.52 0 1.24-0.46 0.72-0.48 1.16-0.86l-0.1-1.84q-1.58 0.08-2.38 0.3-1.26 0.26-1.26 1.58z"/>
	<path class="s1" d="m23.55 36q2.54 0 3.78 0.88 1.24 0.88 1.24 3.2 0 1.94-1.2 3.24-1.2 1.28-3.84 1.28-0.86 0-1.36-0.02l-0.04 3.52 1.46 0.16q0 0.88-0.46 1.74h-4.94l-0.18-1.1q1.04-0.42 1.68-0.58 0-0.06-0.18-10.58-0.32-0.08-1.66-0.52l0.16-1.22zm-0.44 6.7q1.34-0.02 2.08-0.74 0.74-0.72 0.74-1.86 0-1.14-0.66-1.62-0.64-0.5-2.02-0.5-0.54 0-1.02 0.02-0.04 3.16-0.04 4.72zm9.81 7.54q-1.7 0-2.64-0.7-0.92-0.7-0.92-2.36 0-1.58 1.1-2.58 0.64-0.58 1.78-0.68 1.14-0.1 3.14-0.1v-0.32q0-1.22-0.4-1.78-0.38-0.58-1.36-0.58-0.5 0-0.9 0.2l-0.48 1.74-1.48-0.04q-0.5-0.76-0.54-2.42 0.4-0.2 1.88-0.6 1.48-0.42 1.9-0.42 2.16 0 3.14 0.9 0.98 0.88 0.98 2.82 0 1.92-0.18 5.08 1.14 0.1 1.76 0.34 0.02 0.24 0.02 0.58l-0.02 0.44q-1.44 0.48-2.9 0.48-0.38 0-0.56-0.02-0.3-0.6-0.36-1.44h-0.1q-0.38 0.36-1.34 0.92-0.94 0.54-1.52 0.54zm-1-2.94q0 0.66 0.4 0.98 0.42 0.3 0.94 0.3 0.52 0 1.24-0.46 0.72-0.48 1.16-0.86l-0.1-1.84q-1.58 0.08-2.38 0.3-1.26 0.26-1.26 1.58zm16.98-12.16q0.38 0 0.48 0.02 0 1.04-0.26 1.82-0.08 2.16-0.2 6.16-0.1 3.98-0.14 5.26 1.18 0.16 1.76 0.34v0.96q-1.26 0.54-3.46 0.54-0.12-0.22-0.32-1.08-1.84 1-2.66 1.08-2.04 0-3.06-1.48-1-1.48-1-3.8 0-2.34 1.02-3.92 1.02-1.6 3.02-1.6 1.1 0 2.32 0.68l-0.1-2.92q-0.94-0.1-1.58-0.3 0-0.5 0.14-1.44 1.18-0.32 4.04-0.32zm-4.5 6.26q-1.72 0-1.72 3.32 0 1.9 0.68 2.86 0.38 0.56 0.98 0.56 1.02 0 2.3-0.7l-0.18-5.16q-1.14-0.88-2.06-0.88zm12.17 6.88q0.68 0 2.76-0.94 0.44 0.64 0.66 1.48-1.1 0.68-2.16 1.06-1.04 0.36-1.48 0.36-2.42 0-3.68-1.34-1.24-1.34-1.24-3.8 0-2.48 1.24-3.98 1.24-1.52 3.68-1.52 1.94 0 2.96 1.26 1.02 1.26 1.02 3.28 0 0.42-0.48 0.96l-5.76-0.1q0.04 1.6 0.6 2.44 0.56 0.84 1.88 0.84zm-0.4-7.02q-0.76 0-1.42 0.3-0.46 0.96-0.58 1.78 1.56-0.06 3.54-0.08-0.1-2-1.54-2zm9.26-6.12q0.38 0 0.48 0.02 0 1.04-0.26 1.82-0.02 1.24-0.06 3.5-0.08 4.96-0.12 7.6l1.56 0.18q0 0.82-0.46 1.74h-4.98l-0.18-1.1q1.24-0.46 1.8-0.6l-0.38-11.1q-0.94-0.1-1.58-0.3 0-0.74 0.14-1.44 1.18-0.32 4.04-0.32z"/>
	<text id="Text layer 3" style="transform: matrix(1,0,0,1,158,92)" >
	</text>
</svg>